<?xml version="1.0" encoding="UTF-8"?>
<svg width="1539px" height="1917px" viewBox="0 0 1539 1917" version="1.1" xmlns="http://www.w3.org/2000/svg" xmlns:xlink="http://www.w3.org/1999/xlink">
    <!-- Generator: Sketch 50.2 (55047) - http://www.bohemiancoding.com/sketch -->
    <title>Rectangle-path</title>
    <desc>Created with Sketch.</desc>
    <defs></defs>
    <g id="Page-1" stroke="none" stroke-width="1" fill="none" fill-rule="evenodd">
        <path d="M157.408888,1545.81374 C169.068806,1545.81374 181.093096,1547.75706 193.481758,1551.6437 C205.870421,1555.53034 217.165966,1561.72467 227.368394,1570.2267 C237.570822,1578.72872 245.82993,1589.65989 252.145719,1603.02021 C258.461507,1616.38054 261.619402,1632.29147 261.619402,1650.753 L261.619402,1805.24691 C261.619402,1842.16998 251.416974,1869.98375 231.012118,1888.6882 C210.607262,1907.39265 182.429128,1916.74487 146.477715,1916.74487 C131.902818,1916.74487 119.149783,1914.55864 108.21861,1910.18617 C97.2874377,1905.8137 87.6922971,1900.46957 79.4331888,1894.15378 C76.0323795,1898.04042 72.1457403,1901.19832 67.7732712,1903.62747 C63.886632,1906.05662 59.7570778,1908.24285 55.3846087,1910.18617 C51.0121396,1912.12949 46.3967555,1913.10115 41.5384565,1913.10115 L5.10121396,1913.10115 L5.10121396,1906.54245 C5.10121396,1897.31168 6.07287376,1890.02423 8.01619337,1884.6801 C9.95951297,1879.33597 12.8744924,1875.20642 16.7611316,1872.29144 C19.1902811,1870.83395 21.1336007,1869.13354 22.5910904,1867.19022 C24.0485801,1865.2469 24.777325,1861.84609 24.777325,1856.9878 L24.777325,1426.29959 C24.777325,1422.41295 24.0485801,1419.25505 22.5910904,1416.82591 C21.1336007,1414.39676 19.1902811,1412.21052 16.7611316,1410.2672 C12.8744924,1407.83805 9.10931064,1404.80162 5.46558639,1401.15789 C1.82186213,1397.51417 0,1391.56275 0,1383.30364 L0,1368.72874 L46.6396705,1368.72874 C55.3846087,1368.72874 63.0364297,1371.03644 69.5951333,1375.65182 C76.153837,1380.26721 79.4331888,1390.10526 79.4331888,1405.16599 L79.4331888,1567.67609 C85.2631476,1563.78945 92.3076812,1560.14573 100.56679,1556.74492 C107.368408,1554.31577 115.506059,1551.88662 124.979742,1549.45747 C134.453425,1547.02832 145.26314,1545.81374 157.408888,1545.81374 Z M206.963538,1652.21049 C206.963538,1632.29147 201.497951,1617.59511 190.566779,1608.12143 C179.635606,1598.64775 165.910911,1593.9109 149.392695,1593.9109 C137.732777,1593.9109 127.530349,1595.36839 118.785411,1598.28337 C110.040473,1601.19835 102.753024,1604.35625 96.9230652,1607.75706 C90.1214466,1612.12953 84.2914878,1616.74491 79.4331888,1621.60321 L79.4331888,1841.68415 C83.319828,1847.02828 88.178127,1851.64367 94.0080858,1855.53031 C99.3522148,1858.93111 106.275291,1861.96755 114.777314,1864.63962 C123.279337,1867.31168 133.846138,1868.64771 146.477715,1868.64771 C152.793504,1868.64771 159.595122,1867.5546 166.882571,1865.36836 C174.17002,1863.18213 180.728723,1859.78132 186.558682,1855.16593 C192.388641,1850.55055 197.24694,1844.72059 201.133579,1837.67606 C205.020218,1830.63152 206.963538,1822.25096 206.963538,1812.53436 L206.963538,1652.21049 Z M562.6639,1856.25905 C566.550539,1858.6882 570.437178,1863.91087 574.323817,1871.92706 C578.210457,1879.94326 580.153776,1888.56674 580.153776,1897.79751 L580.153776,1912.3724 L532.785361,1912.3724 C526.955402,1912.3724 521.975646,1910.672 517.846091,1907.27119 C513.716537,1903.87038 511.16593,1900.22666 510.194271,1896.34002 C503.392652,1902.16998 494.404799,1906.78536 483.230711,1910.18617 C472.056623,1913.58698 459.425046,1915.28738 445.335979,1915.28738 C406.955417,1915.28738 376.712505,1906.29953 354.607245,1888.32382 C332.501984,1870.34812 321.449354,1842.16998 321.449354,1803.78942 L321.449354,1792.85825 C321.449354,1773.42505 324.850163,1757.02829 331.651782,1743.66797 C338.453401,1730.30765 347.441254,1719.37648 358.615341,1710.87445 C369.789429,1702.37243 382.663922,1695.69227 397.238819,1690.83397 C411.813716,1685.97567 427.117357,1682.33195 443.149744,1679.9028 C464.04043,1676.50199 479.586987,1672.37243 489.789415,1667.51413 C495.133544,1665.57081 499.506013,1663.14166 502.906822,1660.22669 L502.906822,1635.44936 C502.906822,1624.27527 498.291438,1613.70847 489.06067,1603.74896 C479.829902,1593.78945 464.769175,1588.80969 443.878489,1588.80969 C423.473633,1588.80969 408.048534,1592.93924 397.603191,1601.19835 C387.157848,1609.45746 381.935177,1619.65989 381.935177,1631.80564 L381.935177,1634.72062 C381.935177,1654.63964 368.817769,1664.59915 342.582955,1664.59915 L327.279313,1664.59915 L327.279313,1627.43317 C327.279313,1603.6275 336.145709,1583.95139 353.8785,1568.40483 C371.611291,1552.85828 401.368373,1545.085 443.149744,1545.085 C464.04043,1545.085 481.773221,1547.75706 496.348118,1553.10119 C510.923015,1558.44532 522.70439,1565.85423 531.692244,1575.32791 C540.680097,1584.80159 547.2388,1596.2186 551.368355,1609.57892 C555.497909,1622.93924 557.562686,1637.87851 557.562686,1654.39673 L557.562686,1840.95541 C557.562686,1848.24286 559.263091,1853.34407 562.6639,1856.25905 Z M448.979703,1870.83395 C460.153791,1870.83395 469.263101,1869.86229 476.307635,1867.91897 C483.352169,1865.97565 489.06067,1863.78941 493.433139,1861.36026 C498.777268,1858.93111 502.663907,1855.77322 505.093057,1851.88658 L505.093057,1704.68012 C501.692247,1706.13761 497.319778,1707.83802 491.975649,1709.78134 C487.11735,1711.23883 480.801562,1712.93923 473.028283,1714.88255 C465.255005,1716.82587 455.781322,1719.0121 444.607234,1721.44125 C436.348126,1722.89874 428.089017,1725.81372 419.829909,1730.18619 C411.570801,1734.55866 404.161895,1739.78133 397.603191,1745.85421 C391.044487,1751.92708 385.700358,1759.09307 381.570804,1767.35218 C377.44125,1775.61129 375.376473,1784.35623 375.376473,1793.58699 L375.376473,1799.41695 C375.376473,1822.73679 382.785379,1840.46958 397.603191,1852.61533 C412.421003,1864.76107 429.546507,1870.83395 448.979703,1870.83395 Z M801.765086,1545.81374 C813.425003,1545.81374 825.449293,1547.75706 837.837956,1551.6437 C850.226618,1555.53034 861.522163,1561.72467 871.724591,1570.2267 C881.927019,1578.72872 890.186128,1589.65989 896.501916,1603.02021 C902.817705,1616.38054 905.975599,1632.29147 905.975599,1650.753 L905.975599,1805.24691 C905.975599,1842.16998 895.773171,1869.98375 875.368316,1888.6882 C854.96346,1907.39265 826.785326,1916.74487 790.833913,1916.74487 C776.259016,1916.74487 763.505981,1914.55864 752.574808,1910.18617 C741.643635,1905.8137 732.048495,1900.46957 723.789387,1894.15378 C720.388577,1898.04042 716.501938,1901.19832 712.129469,1903.62747 C708.24283,1906.05662 704.113276,1908.24285 699.740806,1910.18617 C695.368337,1912.12949 690.752953,1913.10115 685.894654,1913.10115 L649.457412,1913.10115 L649.457412,1906.54245 C649.457412,1897.31168 650.429071,1890.02423 652.372391,1884.6801 C654.315711,1879.33597 657.23069,1875.20642 661.117329,1872.29144 C663.546479,1870.83395 665.489798,1869.13354 666.947288,1867.19022 C668.404778,1865.2469 669.133523,1861.84609 669.133523,1856.9878 L669.133523,1426.29959 C669.133523,1422.41295 668.404778,1419.25505 666.947288,1416.82591 C665.489798,1414.39676 663.546479,1412.21052 661.117329,1410.2672 C657.23069,1407.83805 653.465508,1404.80162 649.821784,1401.15789 C646.17806,1397.51417 644.356198,1391.56275 644.356198,1383.30364 L644.356198,1368.72874 L690.995868,1368.72874 C699.740806,1368.72874 707.392627,1371.03644 713.951331,1375.65182 C720.510035,1380.26721 723.789387,1390.10526 723.789387,1405.16599 L723.789387,1567.67609 C729.619345,1563.78945 736.663879,1560.14573 744.922987,1556.74492 C751.724606,1554.31577 759.862257,1551.88662 769.33594,1549.45747 C778.809623,1547.02832 789.619338,1545.81374 801.765086,1545.81374 Z M851.319736,1652.21049 C851.319736,1632.29147 845.854149,1617.59511 834.922976,1608.12143 C823.991804,1598.64775 810.267109,1593.9109 793.748892,1593.9109 C782.088975,1593.9109 771.886547,1595.36839 763.141608,1598.28337 C754.39667,1601.19835 747.109222,1604.35625 741.279263,1607.75706 C734.477644,1612.12953 728.647686,1616.74491 723.789387,1621.60321 L723.789387,1841.68415 C727.676026,1847.02828 732.534325,1851.64367 738.364284,1855.53031 C743.708412,1858.93111 750.631489,1861.96755 759.133512,1864.63962 C767.635535,1867.31168 778.202335,1868.64771 790.833913,1868.64771 C797.149702,1868.64771 803.95132,1867.5546 811.238769,1865.36836 C818.526217,1863.18213 825.084921,1859.78132 830.91488,1855.16593 C836.744838,1850.55055 841.603138,1844.72059 845.489777,1837.67606 C849.376416,1830.63152 851.319736,1822.25096 851.319736,1812.53436 L851.319736,1652.21049 Z M1020.46142,1736.01615 L1020.46142,1817.63557 C1020.46142,1827.35217 1022.64765,1835.61128 1027.02012,1842.4129 C1031.39259,1849.21452 1036.97963,1854.92302 1043.78125,1859.5384 C1050.58287,1864.15379 1057.87032,1867.5546 1065.6436,1869.74083 C1073.41687,1871.92706 1080.70432,1873.02018 1087.50594,1873.02018 C1106.93914,1873.02018 1122.48569,1867.91897 1134.14561,1857.71654 C1145.80553,1847.51411 1151.63549,1835.12545 1151.63549,1820.55055 L1151.63549,1816.90683 C1151.63549,1805.73274 1154.1861,1796.9878 1159.28731,1790.67201 C1164.38852,1784.35623 1173.25492,1781.19833 1185.8865,1781.19833 L1204.10512,1781.19833 L1204.10512,1816.90683 C1204.10512,1848.9716 1193.53832,1873.62747 1172.40472,1890.87443 C1151.27112,1908.12139 1122.72861,1916.74487 1086.7772,1916.74487 C1050.82578,1916.74487 1021.67599,1906.54245 999.327815,1886.13759 C976.979639,1865.73273 965.805552,1836.82585 965.805552,1799.41695 L965.805552,1655.12547 C965.805552,1617.71657 976.615267,1590.02426 998.234698,1572.04856 C1019.85413,1554.07285 1048.63955,1545.085 1084.59096,1545.085 C1121.02821,1545.085 1150.05654,1554.07285 1171.67597,1572.04856 C1193.2954,1590.02426 1204.10512,1617.71657 1204.10512,1655.12547 L1204.10512,1699.57891 C1204.10512,1712.21048 1201.19014,1721.44125 1195.36018,1727.27121 C1189.53022,1733.10117 1178.84196,1736.01615 1163.29541,1736.01615 L1020.46142,1736.01615 Z M1020.46142,1693.74895 L1115.92699,1693.74895 L1149.44925,1693.74895 L1149.44925,1640.55057 C1149.44925,1630.83398 1147.26302,1622.57487 1142.89055,1615.77325 C1138.51808,1608.97163 1133.0525,1603.38459 1126.49379,1599.01212 C1119.93509,1594.63965 1112.89055,1591.48175 1105.36019,1589.53843 C1097.82983,1587.59512 1090.66384,1586.62346 1083.86222,1586.62346 C1077.0606,1586.62346 1070.01607,1587.71657 1062.72862,1589.90281 C1055.44117,1592.08904 1048.63955,1595.36839 1042.32376,1599.74086 C1036.00797,1604.11333 1030.7853,1609.70038 1026.65575,1616.50199 C1022.52619,1623.30361 1020.46142,1631.31981 1020.46142,1640.55057 L1020.46142,1693.74895 Z M1353.57069,1873.02018 C1356.9715,1875.44933 1360.61522,1879.33597 1364.50186,1884.6801 C1368.3885,1890.02423 1370.33182,1897.31168 1370.33182,1906.54245 L1370.33182,1913.10115 L1266.1213,1913.10115 L1266.1213,1906.54245 C1266.1213,1897.31168 1267.94317,1889.90277 1271.58689,1884.31573 C1275.23062,1878.72868 1278.9958,1874.72059 1282.88244,1872.29144 C1284.82576,1870.83395 1286.52616,1869.255 1287.98365,1867.5546 C1289.44114,1865.85419 1290.4128,1863.30358 1290.89863,1859.90277 L1290.89863,1422.65586 C1290.4128,1419.74088 1289.44114,1417.19028 1287.98365,1415.00404 C1286.52616,1412.81781 1284.82576,1410.99595 1282.88244,1409.53846 C1278.9958,1407.10931 1275.23062,1403.22267 1271.58689,1397.87854 C1267.94317,1392.53441 1266.1213,1385.73279 1266.1213,1377.47368 L1266.1213,1368 L1327.33587,1368 C1339.48162,1368 1345.55449,1373.82996 1345.55449,1385.48988 L1345.55449,1856.9878 C1345.55449,1861.84609 1346.28324,1865.2469 1347.74073,1867.19022 C1349.19822,1869.13354 1351.14154,1871.07686 1353.57069,1873.02018 Z M1521.98362,1870.1052 C1525.87026,1873.02018 1529.63544,1877.14974 1533.27917,1882.49387 C1536.92289,1887.83799 1538.74475,1895.12544 1538.74475,1904.35621 L1538.74475,1913.10115 L1434.53424,1913.10115 L1434.53424,1903.62747 C1434.53424,1894.3967 1436.47756,1887.10925 1440.3642,1881.76512 C1444.25084,1876.42099 1448.13748,1872.29144 1452.02412,1869.37646 C1456.39659,1866.94731 1458.82574,1863.06067 1459.31157,1857.71654 L1459.31157,1612.12953 C1458.82574,1608.72872 1457.85408,1606.05665 1456.39659,1604.11333 C1454.9391,1602.17001 1453.23869,1600.46961 1451.29537,1599.01212 C1447.40873,1596.09714 1443.64355,1592.08904 1439.99983,1586.98783 C1436.3561,1581.88661 1434.53424,1574.96354 1434.53424,1566.2186 L1434.53424,1548.72872 L1497.93504,1548.72872 C1503.27917,1548.72872 1507.28727,1550.30767 1509.95933,1553.46556 C1512.6314,1556.62346 1513.96743,1560.14573 1513.96743,1564.03237 L1513.96743,1854.80156 C1513.96743,1859.65986 1514.69617,1863.06067 1516.15366,1865.00399 C1517.61115,1866.94731 1519.55447,1868.64771 1521.98362,1870.1052 Z M1478.98768,1473.668 C1470.24274,1473.668 1462.71237,1470.51011 1456.39659,1464.19432 C1450.0808,1457.87853 1446.9229,1450.34817 1446.9229,1441.60323 C1446.9229,1432.37246 1450.0808,1424.59918 1456.39659,1418.28339 C1462.71237,1411.96761 1470.24274,1408.80971 1478.98768,1408.80971 C1488.21844,1408.80971 1495.99172,1411.96761 1502.30751,1418.28339 C1508.6233,1424.59918 1511.78119,1432.37246 1511.78119,1441.60323 C1511.78119,1450.34817 1508.6233,1457.87853 1502.30751,1464.19432 C1495.99172,1470.51011 1488.21844,1473.668 1478.98768,1473.668 Z" id="Shape" fill="#FFFFFF" fill-rule="nonzero"></path>
        <path d="M829.558704,0 L829.558704,133.931174 L709.57085,145.651822 L709.57085,0 L829.558704,0 Z M940.643725,161.283401 L940.643725,319.020243 L598.801619,353.125506 L598.801619,195.388664 L940.643725,161.283401 Z M1058.66397,346.020243 L1058.66397,503.392713 L480.453441,560.939271 L480.453441,402.862348 L1058.66397,346.020243 Z M1184.59109,529.688259 L1184.59109,737.51417 L354.866397,820.287449 L354.866397,612.461538 L1184.59109,529.688259 Z M1316.11741,763.080972 L1316.11741,1093.11741 L223,1093.11741 L223,871.080972 L1316.11741,763.080972 Z" id="Shape" fill="#FFFFFF" fill-rule="nonzero"></path>
    </g>
</svg>